 <svg  width="8" height="12" viewBox="0 0 20 14" fill="#FFF" xmlns="http://www.w3.org/2000/svg" transform="rotate(180)">
    <path d="M9 2L19 2C19.2652 2 19.5196 1.89464 19.7071 1.70711C19.8946 1.51957 20 1.26522 20 1C20 0.734784 19.8946 0.480429 19.7071 0.292892C19.5196 0.105356 19.2652 0 19 0L9 0C8.73478 0 8.48043 0.105356 8.29289 0.292892C8.10536 0.480429 8 0.734784 8 1C8 1.26522 8.10536 1.51957 8.29289 1.70711C8.48043 1.89464 8.73478 2 9 2ZM1 9L19 9C19.2652 9 19.5196 8.89464 19.7071 8.70711C19.8946 8.51957 20 8.26522 20 8C20 7.73478 19.8946 7.48043 19.7071 7.29289C19.5196 7.10536 19.2652 7 19 7L1 7C0.734784 7 0.480429 7.10536 0.292892 7.29289C0.105356 7.48043 0 7.73478 0 8C0 8.26522 0.105356 8.51957 0.292892 8.70711C0.480429 8.89464 0.734784 9 1 9Z" fill="#000000"/>
  </svg>