<svg width="18" height="18" viewBox="0 0 18 18" fill="none" xmlns="http://www.w3.org/2000/svg">
<path d="M16.7596 9.12869C16.7613 9.34731 16.6948 9.56102 16.5694 9.74012C16.4441 9.91922 16.266 10.0548 16.06 10.1281L11.8334 11.6651L10.2971 15.891C10.2213 16.095 10.085 16.271 9.90634 16.3952C9.7277 16.5195 9.5153 16.5861 9.2977 16.5861C9.08009 16.5861 8.8677 16.5195 8.68905 16.3952C8.51041 16.271 8.37406 16.095 8.29834 15.891L6.76199 11.6644L2.53537 10.1281C2.33136 10.0523 2.15542 9.91598 2.03117 9.73734C1.90693 9.55869 1.84033 9.3463 1.84033 9.12869C1.84033 8.91109 1.90693 8.69869 2.03117 8.52005C2.15542 8.3414 2.33136 8.20506 2.53537 8.12933L6.76199 6.59298L8.29834 2.36636C8.37406 2.16236 8.51041 1.98641 8.68905 1.86217C8.8677 1.73792 9.08009 1.67133 9.2977 1.67133C9.5153 1.67133 9.7277 1.73792 9.90634 1.86217C10.085 1.98641 10.2213 2.16236 10.2971 2.36636L11.8341 6.59298L16.06 8.12933C16.266 8.20257 16.4441 8.33816 16.5694 8.51726C16.6948 8.69637 16.7613 8.91008 16.7596 9.12869Z" fill="white"/>
</svg>
