<svg width="27" height="27" viewBox="0 0 27 27" fill="none" xmlns="http://www.w3.org/2000/svg">
<path d="M22.519 8.91161C21.5734 8.85761 20.6385 8.8927 19.6794 8.88461C19.4716 8.88879 19.2636 8.8725 19.0589 8.83601C18.0736 8.64826 17.3733 7.76411 17.4122 6.75688C17.4122 5.89013 17.4122 5.02339 17.4122 4.15663C17.4122 2.42043 16.4719 0.838138 14.8575 0.284606C13.8602 0.00855227 12.8079 0.00389282 11.8083 0.271105C10.2532 0.900347 9.23099 2.41225 9.22139 4.09723C9.22139 4.96398 9.22139 5.83073 9.22139 6.69747C9.25094 9.88096 10.5646 12.3678 13.1703 14.1985C13.5498 14.5008 13.8751 14.8661 14.1321 15.2786C14.9107 16.363 15.3384 17.6622 15.357 18.9994C15.357 19.9876 15.3732 20.9786 15.357 21.9696C15.3489 23.0985 14.4319 24.0069 13.3087 23.9987C12.1856 23.9906 11.2817 23.0687 11.2899 21.9399C11.2899 21.0407 11.2899 20.1443 11.2899 19.2397C11.305 18.1372 10.8787 17.0747 10.1068 16.2913C9.33492 15.5078 8.28213 15.069 7.18512 15.0734C6.30935 15.0734 5.4309 15.0734 4.55246 15.0734C3.4676 15.1281 2.53005 14.3194 2.41913 13.2334C2.30821 12.1473 3.06277 11.1641 4.13606 10.9961C4.71977 10.953 5.30539 10.9422 5.89028 10.9638C6.15892 10.9638 6.4571 10.9638 6.73917 10.9638H7.19855V8.90081H6.73917C5.87953 8.90081 5.01989 8.8684 4.16293 8.91701C2.31149 9.04908 0.780088 10.4166 0.43155 12.249C0.395564 12.6277 0.380318 13.008 0.385881 13.3884C0.572516 15.4902 2.31618 17.1062 4.41545 17.1228C5.33957 17.1228 6.26368 17.1228 7.1878 17.1228C8.27071 17.1231 9.16182 17.9795 9.21064 19.0669C9.2402 19.831 9.21064 20.5979 9.21064 21.3621C9.19802 21.7415 9.21239 22.1214 9.25363 22.4988C9.54725 24.5518 11.316 26.0637 13.3791 26.0252C15.4424 25.9869 17.1541 24.4101 17.3719 22.3476C17.4498 21.5376 17.3907 20.7275 17.4041 19.9337C17.4315 19.2617 17.401 18.5887 17.3128 17.9221C16.982 15.5815 15.7221 13.4754 13.8205 12.0843C13.5204 11.8706 13.2422 11.6273 12.9904 11.3579C11.9949 10.266 11.3981 8.86639 11.298 7.38872C11.2254 6.25465 11.2496 5.11518 11.298 3.97842C11.3324 3.37559 11.6319 2.81943 12.1153 2.46091C12.5986 2.10238 13.2157 1.97869 13.799 2.12341C14.7501 2.34904 15.4081 3.22117 15.3678 4.20254C15.3678 5.08278 15.3678 5.96574 15.3678 6.84599C15.3674 9.08293 17.1481 10.9088 19.3732 10.953C20.3135 10.9718 21.2537 10.953 22.1913 10.953C23.308 10.9616 24.2139 11.8638 24.2329 12.9861C24.2449 14.1012 23.3622 15.0186 22.253 15.0437C21.431 15.0653 20.6062 15.0572 19.7815 15.0437H19.4511V17.1147H19.6446C20.4504 17.1147 21.2564 17.1147 22.0623 17.1147C22.3387 17.1204 22.6149 17.0987 22.887 17.0499C24.908 16.6879 26.3486 14.8758 26.254 12.8148C26.1595 10.7536 24.5591 9.08246 22.5136 8.90891" fill="white"/>
</svg>
